<?xml version="1.0" encoding="UTF-8"?>
<svg id="Layer_2" data-name="Layer 2" xmlns="http://www.w3.org/2000/svg" viewBox="0 0 1053.39 277.9">
  <defs>
    <style>
      .cls-1 {
        fill: #231f20;
      }
    </style>
  </defs>
  <g id="Layer_1-2" data-name="Layer 1">
    <g id="Layer_1-2" data-name="Layer 1-2">
      <path class="cls-1" d="M134.48,0h7.98c.36.2.76.16,1.15.19,1.37.08,2.73.16,4.1.23,2.54.14,5.06.41,7.59.7,2.41.28,4.81.63,7.19,1.05,3.81.67,7.59,1.49,11.34,2.47,14.57,3.81,28.17,9.82,40.78,18.05,15.25,9.96,28.04,22.46,38.44,37.4,8.49,12.2,14.84,25.43,19.09,39.67,1.35,4.54,2.46,9.13,3.35,13.78.36,1.88.67,3.77.95,5.67.23,1.51.38,3.02.57,4.54.23,1.79.42,3.57.43,5.38,0,.23,0,.47.04.7s.12.45.18.67v18.07c-.11.12-.16.27-.17.42-.02.39-.04.78-.06,1.17-.03.7-.04,1.41-.1,2.11-.09,1.05-.23,2.1-.34,3.15-.25,2.49-.62,4.97-1.04,7.43-.66,3.89-1.49,7.75-2.48,11.58-3.21,12.42-8.03,24.17-14.51,35.24-13.13,22.42-32.38,40.74-55.46,52.76-9.72,5.06-19.89,8.91-30.53,11.53-3.34.82-6.7,1.54-10.1,2.09-1.66.27-3.32.51-4.99.75-1.94.28-3.88.49-5.83.64-1.25.1-2.5.18-3.74.28-.23.02-.47.03-.67.17h-15.72c-.24-.16-.52-.16-.79-.18-.7-.04-1.41-.06-2.11-.12-2.57-.24-5.14-.48-7.7-.82-2.25-.3-4.49-.64-6.72-1.06-4.58-.84-9.1-1.91-13.57-3.2-14.66-4.25-28.26-10.72-40.79-19.43l-.48-.33c-.1-.07-.19-.14-.28-.21-.12-.09-.18-.25-.11-.3.06-.05.11-.11.18-.12,1.76-.34,3.54-.66,5.3-1.02,6.12-1.28,12.19-2.81,18.2-4.53,7.03-2.01,13.98-4.27,20.86-6.73,2.32-.83,4.62-1.7,6.94-2.54.66-.24,1.3-.55,1.89-.94.49-.33.94-.7,1.3-1.17.63-.82.88-1.73.55-2.75-.14-.42-.38-.77-.67-1.09-1.3-1.45-2.96-2.14-4.87-2.26-1.66-.1-3.27.21-4.82.8-5.48,2.08-11.01,4.04-16.58,5.86-10.93,3.58-21.99,6.68-33.27,8.94-1.23.25-2.46.46-3.69.71-.25.05-.46,0-.66-.15-.12-.1-.25-.19-.36-.3-1.46-1.3-2.93-2.59-4.39-3.89-.12-.1-.21-.23-.31-.34-.07-.08-.04-.28.05-.3.53-.11,1.07-.22,1.61-.33,5.02-1,10.02-2.12,14.98-3.39,8.67-2.23,17.23-4.84,25.7-7.74,10.32-3.53,20.48-7.49,30.52-11.77,11.15-4.76,22.11-9.93,32.89-15.47,12.22-6.27,24.17-13.01,35.81-20.29,10.59-6.62,20.88-13.66,30.78-21.26,4.56-3.5,9.02-7.13,13.38-10.88.57-.49,1.03-1.06,1.41-1.71.95-1.61,1.48-3.36,1.65-5.21.09-1.02.03-2.03-.2-3.03-.12-.54-.31-1.05-.62-1.51-.46-.66-1.09-1-1.9-.95-.23,0-.47.05-.69.1-.77.2-1.43.58-2.04,1.1-6.38,5.49-13.01,10.66-19.81,15.61-10.95,7.97-22.28,15.35-33.92,22.28-12.57,7.48-25.45,14.4-38.6,20.82-12.09,5.9-24.38,11.35-36.9,16.29-11.06,4.36-22.26,8.31-33.66,11.71-9.03,2.69-18.16,5.01-27.41,6.82-.46.09-.92.18-1.38.26-.2.04-.39,0-.54-.16-.11-.11-.22-.22-.32-.34-1.37-1.61-2.74-3.22-4.1-4.83-.1-.12-.19-.25-.26-.39-.03-.06-.02-.15-.02-.22.07-.03.13-.08.2-.1.69-.15,1.38-.3,2.07-.43,5.03-.98,10.01-2.15,14.97-3.44,9.01-2.33,17.9-5.06,26.7-8.07,9.14-3.13,18.16-6.56,27.08-10.25,14.68-6.06,29.05-12.8,43.14-20.12,6.18-3.21,12.28-6.55,18.32-10.01,1-.57,1.88-1.26,2.66-2.1.92-.99,1.59-2.13,1.91-3.45.23-.96.3-1.95.05-2.91-.31-1.19-.93-2.24-1.86-3.07-.82-.73-1.76-1.15-2.86-1.2-.75-.04-1.48,0-2.21.2-.95.25-1.84.63-2.7,1.12-10.26,5.85-20.7,11.36-31.31,16.56-9.23,4.53-18.58,8.8-28.06,12.8-13.26,5.6-26.72,10.66-40.44,15-6.75,2.13-13.55,4.08-20.41,5.8-4.32,1.08-8.67,2.05-13.04,2.94-.57.12-1.15.21-1.73.3-.16.03-.3-.05-.41-.18-.07-.09-.14-.19-.21-.28-1.29-1.96-2.53-3.95-3.72-5.98-.08-.13-.13-.28-.2-.42-.04-.08.05-.25.15-.28.11-.04.22-.08.33-.1,1.3-.26,2.61-.51,3.91-.79,6.99-1.51,13.93-3.26,20.8-5.23,10.3-2.95,20.45-6.35,30.49-10.09,12.02-4.47,23.84-9.43,35.5-14.78,4.8-2.2,9.58-4.43,14.31-6.77,1.1-.54,2.06-1.28,2.89-2.17.51-.55.95-1.15,1.26-1.83,1-2.15.97-4.24-.42-6.22-.29-.42-.61-.82-.96-1.18-1.21-1.22-2.69-1.86-4.41-1.92-1.64-.05-3.18.33-4.65,1.04-4.05,1.94-8.09,3.92-12.17,5.82-11.95,5.56-24.08,10.68-36.42,15.33-11.2,4.22-22.53,8.03-34.05,11.28-7.37,2.08-14.81,3.91-22.32,5.44-.11.02-.23.04-.35.05-.22.03-.4-.06-.49-.23-.05-.1-.11-.21-.15-.32-1.05-2.32-2.03-4.66-2.94-7.03-.06-.15-.1-.3-.14-.45-.03-.09.06-.25.16-.28.15-.05.3-.1.45-.13,4.21-.86,8.4-1.83,12.57-2.89,9.82-2.49,19.5-5.42,29.09-8.69,8.1-2.76,16.12-5.75,24.07-8.95,13.5-5.43,26.75-11.41,39.79-17.86,10.1-4.99,20.04-10.28,29.82-15.86,12.67-7.24,25.04-14.96,37.03-23.29,2.31-1.61,4.6-3.24,6.88-4.9,1.47-1.07,2.42-2.53,2.92-4.28.34-1.19.36-2.4.17-3.61-.31-2.04-1.23-3.79-2.8-5.14-1.55-1.34-3.33-1.64-5.27-1.04-.76.23-1.42.62-2.06,1.09-4.97,3.61-10.02,7.09-15.14,10.48-10.54,6.97-21.34,13.51-32.36,19.69-9.76,5.47-19.67,10.64-29.73,15.53-15.55,7.56-31.4,14.42-47.6,20.46-11.95,4.45-24.04,8.43-36.36,11.75-5.13,1.38-10.3,2.65-15.5,3.75-.15.03-.31.06-.46.06-.06,0-.16-.06-.19-.11-.09-.21-.19-.43-.24-.66-.47-1.98-.95-3.95-1.39-5.94-.16-.72-.36-1.44-.39-2.17.07-.07.12-.15.18-.17.3-.09.6-.18.9-.25,4.09-.9,8.14-1.91,12.18-2.98,8.31-2.21,16.53-4.74,24.67-7.51,10.26-3.49,20.37-7.34,30.37-11.51,13.32-5.56,26.41-11.61,39.27-18.15,8.75-4.45,17.38-9.12,25.88-14.03,5.72-3.3,11.38-6.72,16.98-10.23,1.08-.68,1.98-1.52,2.68-2.58,1.33-2.04,1.52-4.22.82-6.52-.79-1.84-1.94-3.39-3.69-4.42-1.39-.81-2.88-.93-4.43-.61-1.09.22-2.05.73-2.99,1.32-13.95,8.76-28.31,16.8-43,24.25-7.6,3.85-15.29,7.54-23.05,11.05-11.51,5.2-23.18,10.01-35.04,14.35-12.34,4.51-24.85,8.5-37.59,11.72-1.89.48-3.8.92-5.7,1.38-.11.03-.23.05-.34.04-.06,0-.16-.07-.17-.13-.06-.18-.12-.37-.13-.56-.09-1.84-.3-3.67-.31-5.51,0-.55-.03-1.09-.07-1.64-.03-.43-.1-.86-.37-1.22v-5.4c.25-.41.35-.86.38-1.34,0-.23.02-.47.03-.7.06-1.64.13-3.28.24-4.92.19-2.77.47-5.53.81-8.29.37-2.91.84-5.8,1.4-8.68,1.02-5.18,2.3-10.29,3.9-15.33,6.1-19.22,15.86-36.36,29.47-51.24C54.04,25.97,75.61,12.55,100.98,5.29c4.1-1.17,8.25-2.13,12.44-2.9,2.81-.51,5.63-.94,8.46-1.28,1.94-.23,3.89-.43,5.83-.59,1.79-.15,3.59-.21,5.39-.32.31-.02.63-.02.94-.06.15-.02.29-.09.44-.14h0ZM141.91,161.1c.47-.05.94-.04,1.39-.15,2.96-.7,5.04-2.45,6.04-5.32.86-2.46.47-4.79-1.24-6.8-1.34-1.58-3.12-2.36-5.18-2.26-2.76.13-4.91,1.43-6.42,3.73-1.14,1.74-1.54,3.65-1.06,5.71.38,1.62,1.23,2.94,2.62,3.89,1.16.79,2.45,1.19,3.86,1.21h0ZM158.65,141.21c0,.27-.02.55,0,.82.14,1.44.63,2.74,1.57,3.85,1.21,1.42,2.78,2.13,4.63,2.18,1.2.03,2.31-.33,3.35-.94,2.66-1.57,4.53-4.89,3.78-8.55-.25-1.25-.8-2.37-1.66-3.32-.73-.8-1.59-1.39-2.63-1.7-1.97-.58-3.78-.18-5.5.87-2.28,1.69-3.52,3.93-3.55,6.79h0ZM167.96,76.45c.02,2.37.83,4.43,2.42,6.18.69.76,1.52,1.35,2.47,1.75,2.77,1.16,5.4.22,6.9-2.04.68-1.04,1.08-2.18,1.16-3.4.19-2.78-.74-5.15-2.75-7.08-.68-.65-1.47-1.16-2.35-1.52-2.23-.91-5.1-.3-6.62,2.01-.82,1.25-1.22,2.61-1.23,4.09h0ZM180.15,127.46c.02.91.1,1.72.34,2.51.34,1.1.84,2.1,1.63,2.95,1.04,1.11,2.35,1.69,3.85,1.73.99.03,1.93-.27,2.79-.77.89-.52,1.64-1.21,2.22-2.06,1.73-2.54,2.05-5.27,1.03-8.15-.37-1.05-.98-1.95-1.82-2.69-1.08-.95-2.32-1.42-3.77-1.29-1.33.12-2.5.61-3.48,1.51-1.86,1.7-2.78,3.83-2.78,6.27h0ZM207.72,87.79c.03-1.35-.25-2.64-.74-3.89-.49-1.26-1.24-2.35-2.24-3.26-.64-.59-1.35-1.07-2.19-1.32-1.79-.52-3.33-.09-4.59,1.26-.96,1.03-1.51,2.29-1.71,3.67-.39,2.62.12,5.06,1.58,7.28.39.59.86,1.12,1.39,1.58.56.49,1.2.88,1.91,1.11,1.81.6,3.39.23,4.72-1.14.5-.51.87-1.11,1.15-1.76.49-1.13.73-2.31.72-3.54h0ZM175.27,156.97c0,1.32.31,2.56,1.03,3.67,1.11,1.73,3.06,2.52,5.08,2.12.82-.16,1.57-.48,2.26-.93,2.31-1.48,4.23-4.49,3.88-7.91-.13-1.28-.57-2.44-1.43-3.4-1.22-1.36-2.73-1.9-4.54-1.57-1.34.25-2.51.83-3.5,1.78-1.78,1.7-2.77,3.75-2.78,6.24h0ZM199.64,113.62c.02,1.38.14,2.21.59,3.44.3.81.71,1.56,1.28,2.22.52.6,1.12,1.08,1.86,1.39.89.38,1.79.5,2.74.23.77-.21,1.44-.6,2.03-1.12.86-.77,1.48-1.71,1.91-2.77.78-1.9.92-3.86.48-5.86-.29-1.33-.88-2.5-1.77-3.52-.44-.51-.95-.93-1.55-1.23-.71-.36-1.47-.56-2.26-.45-1.2.16-2.25.64-3.07,1.55-.47.52-.88,1.09-1.21,1.72-.72,1.38-1.04,2.85-1.04,4.4h.01ZM204.42,143.17c.04-.71-.08-1.41-.24-2.09-.24-.96-.68-1.83-1.35-2.56-.99-1.07-2.22-1.59-3.68-1.36-1.14.18-2.15.66-3.01,1.45-2.21,2.01-3.48,5.36-2.71,8.64.24,1.04.65,2.01,1.39,2.8,1.14,1.21,2.53,1.62,4.15,1.21,1.22-.31,2.2-1,3.02-1.91,1.58-1.75,2.37-3.82,2.43-6.17h0ZM220.88,76.59c.02-1.87-.43-3.55-1.2-5.15-.43-.88-.99-1.68-1.67-2.39-.57-.59-1.22-1.09-1.98-1.42-1.65-.71-3.46-.11-4.38,1.2-.38.55-.69,1.13-.9,1.76-.27.82-.43,1.66-.43,2.53,0,2.45.65,4.7,2.06,6.71.31.45.68.86,1.06,1.24.65.63,1.4,1.1,2.29,1.36,1.48.43,2.69,0,3.69-1.11.45-.5.75-1.09.98-1.72.37-1,.52-2.04.49-3.02h-.01ZM231.73,65.81c-.07-2.66-.79-4.97-2.2-7.07-.46-.68-1-1.3-1.63-1.83-.52-.43-1.09-.76-1.74-.93-.51-.13-1-.11-1.5.07-.69.25-1.21.68-1.56,1.34-.53.99-.79,2.04-.82,3.15-.07,2.91.76,5.55,2.42,7.93.33.48.74.91,1.17,1.31.34.32.74.58,1.13.82.33.2.71.31,1.1.39.88.17,1.62-.09,2.25-.71.51-.51.81-1.14,1.03-1.82.3-.9.34-1.84.36-2.64h0ZM156.31,213.3c-.05-1.2-.78-2.37-2.17-3.11-.7-.37-1.46-.52-2.25-.56-.67-.03-1.32.08-1.97.22-1.72.38-3.2,1.21-4.44,2.45-.61.61-1.12,1.3-1.43,2.12-.27.7-.45,1.41-.32,2.17.21,1.29.92,2.21,2.06,2.82.95.51,1.99.71,3.05.66,2.1-.11,3.93-.91,5.49-2.32.55-.5,1.02-1.08,1.37-1.74.39-.73.65-1.5.62-2.72h0ZM127.58,229.66c.88,0,1.71-.1,2.54-.35,1.41-.42,2.67-1.09,3.7-2.16.52-.54.92-1.15,1.16-1.87.36-1.08.17-2.08-.46-3.01-.29-.43-.66-.77-1.08-1.06-.78-.54-1.65-.89-2.59-1.02-1.74-.22-3.43,0-5.04.69-.98.42-1.84,1.01-2.58,1.79-.33.34-.6.72-.82,1.14-.67,1.28-.53,2.88.51,4.03.51.56,1.1.98,1.8,1.28.91.38,1.87.54,2.86.54h0ZM247.02,128.37c-.04-.62-.07-1.25-.13-1.87-.06-.66-.25-1.3-.51-1.92-.13-.33-.32-.63-.56-.89-.46-.49-1.09-.61-1.71-.32-.5.24-.91.59-1.24,1.04-.58.79-1.03,1.66-1.35,2.58-.83,2.4-1.11,4.86-.71,7.38.1.66.28,1.3.58,1.89.17.35.39.68.71.91.41.3.84.38,1.32.17.29-.12.56-.29.77-.52.26-.28.52-.58.74-.9.42-.61.74-1.28,1.01-1.97.7-1.8,1.03-3.67,1.06-5.61l.02.03Z"/>
      <g>
        <polygon class="cls-1" points="366.66 203.39 339.17 203.39 295.1 83.8 333.06 83.8 353.04 146.46 372.73 83.8 410.71 83.8 366.66 203.39"/>
        <path class="cls-1" d="M440.73,155.92c0,9.67,7.46,18.45,20.88,18.45,12.54,0,18.04-3.52,24.44-9.89l21.52,21.54c-12.1,12.1-23.97,18.69-45.96,18.69-26.16,0-56.26-9.44-56.26-60.48,0-38.69,21.98-60.43,52.99-60.43,34.28,0,53.21,25.06,53.21,56.05v16.08h-70.82,0ZM473.95,122.7c-2.21-5.07-7.06-9.24-15.61-9.24s-13.42,4.18-15.63,9.24c-1.53,3.08-1.97,6.37-1.97,9.24h35.19c0-2.87-.44-6.17-1.97-9.24"/>
        <path class="cls-1" d="M586.08,122.48c-3.56-3.52-6.85-6.17-13-6.17-4.84,0-14.51,2.85-14.51,16.29v70.78h-36.05v-119.58h35.17v10.99c5.28-5.28,15.61-10.99,27.91-10.99s19.57,2.85,27.71,10.99c0,0-27.23,27.69-27.23,27.69Z"/>
        <path class="cls-1" d="M801.44,203.39v-70.77c0-13.65-9.68-16.3-14.51-16.3s-14.53,2.65-14.53,16.3v70.77h-36.05v-70.77c0-13.65-9.69-16.3-14.51-16.3s-14.51,2.65-14.51,16.3v70.77h-36.07v-119.58h35.19v10.99c7.25-7.25,18.04-10.99,27.47-10.99,11.67,0,21.12,3.74,28.81,12.54,10.33-9.04,19.78-12.54,33.39-12.54,11.2,0,22.01,3.74,28.4,10.11,10.09,10.09,12.96,21.32,12.96,33.86v75.62h-36.05.01Z"/>
        <path class="cls-1" d="M937.5,189.54c-7.04,7.46-18.89,15.17-38.02,15.17s-31.03-7.72-38.08-15.17c-9.85-10.78-12.94-21.98-12.94-45.31s3.1-34.5,12.94-45.25c7.05-7.52,18.95-15.17,38.08-15.17s30.99,7.66,38.02,15.17c9.88,10.75,12.98,22.2,12.98,45.25s-3.1,34.53-12.98,45.31M909.17,119.65c-2.21-2.21-5.28-3.33-9.69-3.33s-7.52,1.13-9.68,3.33c-4.62,4.6-5.26,12.96-5.26,24.58s.64,20.03,5.26,24.66c2.17,2.21,5.28,3.29,9.68,3.29s7.48-1.09,9.69-3.29c4.6-4.62,5.26-12.96,5.26-24.66s-.66-19.98-5.26-24.58"/>
        <path class="cls-1" d="M1026.12,122.48c-3.54-3.52-6.81-6.17-12.98-6.17-4.87,0-14.53,2.85-14.53,16.29v70.78h-36.07v-119.58h35.21v10.99c5.24-5.28,15.61-10.99,27.91-10.99,11.65,0,19.57,2.85,27.73,10.99,0,0-27.27,27.69-27.27,27.69Z"/>
        <polygon class="cls-1" points="655.01 98.25 655.01 83.74 618.95 83.74 618.95 129.46 655.01 98.25"/>
        <polygon class="cls-1" points="618.96 142.92 618.96 203.39 655.01 203.39 655.01 111.75 618.96 142.92"/>
      </g>
    </g>
  </g>
</svg>